# xmcd CD database file
#
# Track frame offsets:
#	150
#	15129
#	25215
#	40230
#	55390
#	70693
#	82284
#	96702
#	113481
#	133231
#	149680
#
# Disc length: 2189 seconds
#
# Revision: 2
# Processed by: cddbd v1.5.1PL0 Copyright (c) Steve Scherf et al.
# Submitted via: CDex 1.50
#
DISCID=9c088b0b
DTITLE=Larry Stenabaugh - Pink Slip Blues
DYEAR=1900
DGENRE=Country
TTITLE0=The Pink Slip Blues
TTITLE1=Eastern Boy
TTITLE2=Heart Attack
TTITLE3=Lady Blue
TTITLE4=Satisfied
TTITLE5=Head Games
TTITLE6=Out of Sight
TTITLE7=Forever Will be Our Love
TTITLE8=What Love Means to Me
TTITLE9=Wrong Thoughts
TTITLE10=Queen of the Seas
EXTD=
EXTT0=
EXTT1=
EXTT2=
EXTT3=
EXTT4=
EXTT5=
EXTT6=
EXTT7=
EXTT8=
EXTT9=
EXTT10=
PLAYORDER=
